# xmcd
#
# Track frame offsets: 
#        150
#        8023
#        18915
#        30343
#        41863
#        53260
#        64803
#        75378
#        87020
#        101750
#        112910
#        124980
#        134948
#        149445
#        167478
#        181218
#        194335
#        203763
#        213170
#
# Disc length: 2983 seconds
#
# Revision: 5
# Processed by: cddbd v1.5.2PL0 Copyright (c) Steve Scherf et al.
# Submitted via: ExactAudioCopy v0.99pb5
#
DISCID=f80ba513
DTITLE=Various Artist - Country Legends
DYEAR=1993
DGENRE=Country
TTITLE0=Roger Miller - Dang Me
TTITLE1=Roger Miller - King Of The Road
TTITLE2=The Kendalls - Heaven's Just A Sin Away
TTITLE3=Conway Twitty - To See My Angel Cry
TTITLE4=Patsy Cline - The Heart You Break May Be Your Own
TTITLE5=Patsy Cline - Walkin' After Midnight
TTITLE6=Don Gibson - Oh! Lonesome Me
TTITLE7=Karl Denver - Wimoweh
TTITLE8=Jeannie C Riley - Harper Valley PTA
TTITLE9=Jim Reeves - Am I Losing You?
TTITLE10=Johnny Paycheck - Take This Job And Shove It
TTITLE11=Brenda Lee - I'm Sorry
TTITLE12=Loretta Lynn - Coal Miners Daughter
TTITLE13=Rick Nelson - Garden Party
TTITLE14=Freddy Fender - Wasted Days And Wasted Nights
TTITLE15=Lynn Anderson - Rose Garden
TTITLE16=Ned Miller - From A Jack To A King
TTITLE17=Charley Pride - Kiss An Angel Good Morning
TTITLE18=Billie Joe Spears - What I've Got In Mind
EXTD=YEAR: 1993 ID3G:   2
EXTT0=
EXTT1=
EXTT2=
EXTT3=
EXTT4=
EXTT5=
EXTT6=
EXTT7=
EXTT8=
EXTT9=
EXTT10=
EXTT11=
EXTT12=
EXTT13=
EXTT14=
EXTT15=
EXTT16=
EXTT17=
EXTT18=
PLAYORDER=
